<svg width="163" height="159" viewBox="0 0 163 159" fill="none" xmlns="http://www.w3.org/2000/svg">
<path d="M45.5542 52.4314C54.1042 58.1114 61.1442 64.5914 67.7442 72.4314C68.2175 72.9914 68.7009 73.5614 69.1942 74.1414C72.8142 78.4614 76.2342 82.9013 79.6342 87.4013C84.4942 93.7713 89.8142 99.7414 95.1042 105.761C96.4709 107.341 97.8109 108.941 99.1242 110.561C101.484 113.351 103.944 115.871 106.554 118.431C107.734 119.645 108.911 120.858 110.084 122.071C125.184 137.551 141.514 151.051 162.554 157.431C162.554 157.758 162.554 158.091 162.554 158.431C153.181 158.525 143.808 158.595 134.434 158.641C130.081 158.661 125.728 158.691 121.374 158.731C117.161 158.778 112.948 158.805 108.734 158.811C107.141 158.818 105.548 158.831 103.954 158.851C89.3242 159.051 75.9442 156.661 62.5542 150.431C61.4475 149.918 60.3242 149.398 59.1842 148.871C34.7942 137.251 14.7042 118.191 3.55418 93.4314C3.21418 92.6847 2.86751 91.928 2.51418 91.1613C-1.17582 81.8813 -0.675815 71.0413 3.17419 61.9013C7.02419 55.0213 12.4842 50.5914 19.9242 48.0614C29.4042 45.7914 37.1242 47.7714 45.5542 52.4314Z" fill="#FCFCFC"/>
<path d="M14.5542 0.431352C24.4475 0.338018 34.3409 0.268027 44.2342 0.22136C48.8275 0.20136 53.4242 0.171364 58.0242 0.131364C62.4709 0.0846974 66.9175 0.0580136 71.3642 0.0513469C73.0509 0.0446803 74.7342 0.0313384 76.4142 0.0113384C95.8542 -0.228662 113.844 3.27138 128.374 17.2114C129.088 17.938 129.814 18.678 130.554 19.4314C131.141 20.018 131.734 20.6114 132.334 21.2114C141.714 31.3314 145.144 44.8014 144.774 58.3314C143.824 71.6214 138.864 85.4914 129.044 94.8714C123.184 99.9414 116.804 104.611 109.554 107.431C105.964 106.231 105.504 104.961 103.824 101.721C103.498 101.061 103.164 100.391 102.824 99.7114C102.471 99.0314 102.114 98.338 101.754 97.6314C100.621 95.4047 99.4909 93.1713 98.3642 90.9314C97.5842 89.398 96.8042 87.868 96.0242 86.3413C92.2842 78.9713 88.6042 71.5814 85.1842 64.0614C74.3742 40.4414 59.7642 16.4314 34.4642 6.62135C27.9442 4.31135 21.4142 2.44135 14.5542 1.43135C14.5542 1.10469 14.5542 0.771352 14.5542 0.431352Z" fill="#FCFCFC"/>
</svg>
