<svg width="1116" height="479" viewBox="0 0 1116 479" fill="none" xmlns="http://www.w3.org/2000/svg">
<path d="M42.3999 90.8009C50.3579 96.0876 56.9104 102.119 63.0534 109.416C63.494 109.937 63.9439 110.468 64.403 111.008C67.7724 115.029 70.9556 119.161 74.1201 123.349C78.6436 129.278 83.5953 134.835 88.519 140.438C89.791 141.909 91.0382 143.398 92.2606 144.906C94.4572 147.503 96.7469 149.848 99.1761 152.231C100.274 153.36 101.37 154.49 102.462 155.619C116.516 170.027 131.715 182.592 151.299 188.53C151.299 188.835 151.299 189.145 151.299 189.461C142.574 189.548 133.85 189.613 125.126 189.657C121.074 189.675 117.022 189.703 112.97 189.74C109.048 189.784 105.127 189.809 101.205 189.815C99.7222 189.821 98.2392 189.834 96.7562 189.852C83.1392 190.038 70.6856 187.814 58.2228 182.015C57.1928 181.537 56.1472 181.053 55.0862 180.563C32.385 169.748 13.686 152.008 3.30808 128.962C2.99163 128.267 2.66896 127.563 2.34009 126.849C-1.0944 118.212 -0.62902 108.122 2.9544 99.6151C6.53782 93.2115 11.6198 89.0883 18.5446 86.7335C27.3682 84.6207 34.5536 86.4636 42.3999 90.8009Z" fill="#FCFCFC"/>
<path d="M13.5464 42.4015C22.7547 42.3146 31.963 42.2495 41.1713 42.206C45.4466 42.1874 49.725 42.1595 54.0065 42.1223C58.1453 42.0788 62.284 42.054 66.4228 42.0478C67.9927 42.0416 69.5595 42.0292 71.1231 42.0106C89.2171 41.7872 105.961 45.0449 119.485 58.0196C120.149 58.696 120.826 59.3847 121.514 60.0859C122.06 60.6319 122.613 61.1842 123.171 61.7427C131.902 71.1619 135.094 83.6992 134.75 96.2924C133.866 108.662 129.249 121.572 120.109 130.302C114.655 135.021 108.716 139.368 101.968 141.993C98.627 140.876 98.1989 139.694 96.6352 136.678C96.3312 136.064 96.0209 135.44 95.7044 134.807C95.3756 134.174 95.0436 133.529 94.7085 132.871C93.6537 130.799 92.6019 128.72 91.5533 126.635C90.8273 125.208 90.1013 123.784 89.3753 122.363C85.8943 115.503 82.4691 108.625 79.2859 101.626C69.2244 79.6411 55.626 57.2936 32.0778 48.1629C26.0093 46.0128 19.9314 44.2723 13.5464 43.3322C13.5464 43.0282 13.5464 42.7179 13.5464 42.4015Z" fill="#FCFCFC"/>
<path d="M263.662 122.555L281.702 119.48L312.657 177.495C313.751 179.408 314.912 180.843 316.142 181.8C317.509 182.757 319.149 183.372 321.062 183.645C322.976 183.782 325.299 183.85 328.032 183.85H328.647V190H297.487L263.662 122.555ZM238.447 181.8C238.447 182.21 238.926 182.552 239.882 182.825C240.976 182.962 242.342 183.167 243.982 183.44C245.622 183.577 247.399 183.713 249.312 183.85C251.362 183.85 253.344 183.85 255.257 183.85H257.512V190H201.752V183.85H202.982C207.356 183.85 211.182 183.372 214.462 182.415C217.742 181.458 219.382 179.477 219.382 176.47V57.98C219.382 54.9733 217.742 52.9917 214.462 52.035C211.182 51.0783 207.356 50.6 202.982 50.6H201.752V44.45H259.767C270.837 44.45 280.267 46.1583 288.057 49.575C295.984 52.9917 302.066 57.7067 306.302 63.72C310.539 69.7333 312.657 76.7033 312.657 84.63C312.657 91.8733 310.812 98.2967 307.122 103.9C303.569 109.367 298.444 113.877 291.747 117.43C285.051 120.847 277.124 123.033 267.967 123.99C267.011 123.99 265.986 124.058 264.892 124.195C263.799 124.195 262.706 124.263 261.612 124.4C260.519 124.4 259.426 124.4 258.332 124.4H234.347V117.635H258.537C266.737 117.635 273.297 116.337 278.217 113.74C283.274 111.143 286.964 107.385 289.287 102.465C291.611 97.4083 292.772 91.4633 292.772 84.63C292.772 77.9333 291.542 72.125 289.082 67.205C286.622 62.285 282.932 58.4583 278.012 55.725C273.092 52.9917 266.874 51.625 259.357 51.625H238.447V181.8ZM354.943 137.93C354.943 145.583 355.832 152.348 357.608 158.225C359.522 164.102 362.118 169.09 365.398 173.19C368.815 177.153 372.778 180.228 377.288 182.415C381.798 184.465 386.787 185.49 392.253 185.49C397.857 185.49 402.777 184.533 407.013 182.62C411.25 180.707 414.94 178.11 418.083 174.83C421.227 171.55 423.892 167.86 426.078 163.76L431.613 168.475C429.153 173.395 425.873 177.632 421.773 181.185C417.673 184.738 413.027 187.472 407.833 189.385C402.64 191.162 396.968 192.05 390.818 192.05C380.978 192.05 371.89 189.863 363.553 185.49C355.353 180.98 348.793 174.625 343.873 166.425C338.953 158.225 336.493 148.59 336.493 137.52C336.493 126.45 338.748 116.747 343.258 108.41C347.768 99.9367 353.85 93.3767 361.503 88.73C369.293 84.0833 377.972 81.76 387.538 81.76C394.508 81.76 400.727 82.9217 406.193 85.245C411.797 87.5683 416.512 90.985 420.338 95.495C424.302 99.8683 427.308 105.335 429.358 111.895C431.408 118.318 432.433 125.767 432.433 134.24H349.408L349.203 128.09H419.928L414.188 130.345C414.052 123.512 413.437 117.498 412.343 112.305C411.25 107.112 409.542 102.738 407.218 99.185C405.032 95.6317 402.298 92.9667 399.018 91.19C395.738 89.2767 391.912 88.32 387.538 88.32C382.755 88.32 378.313 89.4817 374.213 91.805C370.25 93.9917 366.833 97.2717 363.963 101.645C361.093 105.882 358.838 111.075 357.198 117.225C355.695 123.375 354.943 130.277 354.943 137.93ZM446.577 190V183.85H446.987C451.497 183.85 455.255 183.372 458.262 182.415C461.268 181.458 462.772 179.477 462.772 176.47V99.595C462.772 97.545 462.225 95.9733 461.132 94.88C460.175 93.7867 458.672 92.8983 456.622 92.215C454.572 91.5317 451.975 90.9167 448.832 90.37L446.577 89.96V83.81H479.582V104.515L481.017 106.975V181.8C481.017 182.21 481.768 182.62 483.272 183.03C484.912 183.303 486.757 183.508 488.807 183.645C490.993 183.782 492.975 183.85 494.752 183.85H494.957V190H446.577ZM556.867 190H510.742V183.85H510.947C512.723 183.85 514.637 183.782 516.687 183.645C518.873 183.508 520.718 183.303 522.222 183.03C523.862 182.62 524.682 182.21 524.682 181.8V114.97C524.682 108.82 524.135 103.9 523.042 100.21C522.085 96.3833 520.445 93.65 518.122 92.01C515.798 90.2333 512.655 89.345 508.692 89.345C504.455 89.345 500.492 90.4383 496.802 92.625C493.248 94.8117 489.832 98.0233 486.552 102.26C483.408 106.36 480.197 111.485 476.917 117.635L473.637 112.305C477.327 106.155 481.017 100.825 484.707 96.315C488.397 91.6683 492.497 88.115 497.007 85.655C501.653 83.0583 507.12 81.76 513.407 81.76C519.283 81.76 524.408 82.9217 528.782 85.245C533.155 87.5683 536.572 91.19 539.032 96.11C541.628 100.893 542.927 107.112 542.927 114.765V181.8C542.927 182.21 543.678 182.62 545.182 183.03C546.822 183.303 548.667 183.508 550.717 183.645C552.903 183.782 554.885 183.85 556.662 183.85H556.867V190ZM621.442 190H572.857V183.85H573.062C574.838 183.85 576.752 183.782 578.802 183.645C580.988 183.508 582.833 183.303 584.337 183.03C585.977 182.62 586.797 182.21 586.797 181.8V114.97C586.797 108.82 586.25 103.9 585.157 100.21C584.2 96.3833 582.56 93.65 580.237 92.01C577.913 90.2333 574.77 89.345 570.807 89.345C566.57 89.345 562.607 90.5067 558.917 92.83C555.363 95.0167 551.947 98.2283 548.667 102.465C545.523 106.565 542.312 111.622 539.032 117.635L535.957 112.305C539.51 106.155 543.132 100.825 546.822 96.315C550.512 91.6683 554.612 88.115 559.122 85.655C563.768 83.0583 569.235 81.76 575.522 81.76C581.262 81.76 586.318 82.9217 590.692 85.245C595.202 87.5683 598.687 91.19 601.147 96.11C603.743 100.893 605.042 107.112 605.042 114.765V176.47C605.042 179.477 606.545 181.458 609.552 182.415C612.558 183.372 616.317 183.85 620.827 183.85H621.442V190ZM703.708 127.885L703.298 134.445C696.328 134.992 690.041 135.812 684.438 136.905C678.971 137.998 674.188 139.433 670.088 141.21C666.124 142.85 662.776 144.832 660.043 147.155C657.309 149.342 655.259 151.938 653.893 154.945C652.663 157.815 652.048 161.095 652.048 164.785C652.048 169.295 652.799 173.053 654.303 176.06C655.806 178.93 657.924 181.117 660.658 182.62C663.528 184.123 666.739 184.875 670.293 184.875C675.213 184.875 679.449 183.918 683.003 182.005C686.693 179.955 689.904 177.153 692.638 173.6C695.371 170.047 697.763 166.083 699.813 161.71L703.913 163.555C701.589 169.432 698.583 174.557 694.893 178.93C691.339 183.167 687.171 186.447 682.388 188.77C677.604 190.957 672.206 192.05 666.193 192.05C660.316 192.05 654.918 190.957 649.998 188.77C645.214 186.583 641.388 183.44 638.518 179.34C635.648 175.24 634.213 170.388 634.213 164.785C634.213 159.182 635.716 154.398 638.723 150.435C641.729 146.335 646.171 142.85 652.048 139.98C657.924 137.11 665.168 134.718 673.778 132.805C682.524 130.892 692.501 129.252 703.708 127.885ZM699.403 190V169.705L697.763 170.525V115.175C697.763 108.615 696.943 103.422 695.303 99.595C693.799 95.6317 691.408 92.7617 688.128 90.985C684.848 89.2083 680.748 88.32 675.828 88.32C668.311 88.32 662.229 89.8917 657.583 93.035C652.936 96.0417 649.109 99.8 646.103 104.31C646.376 101.713 646.786 99.5267 647.333 97.75C648.016 95.8367 648.836 94.265 649.793 93.035C650.886 91.805 652.048 90.985 653.278 90.575C654.644 90.0283 656.011 89.8233 657.378 89.96V112.1H640.773V93.445C642.686 91.9417 645.351 90.3017 648.768 88.525C652.321 86.7483 656.489 85.1767 661.273 83.81C666.193 82.4433 671.591 81.76 677.468 81.76C683.208 81.76 688.401 82.4433 693.048 83.81C697.831 85.04 701.931 87.0217 705.348 89.755C708.764 92.3517 711.361 95.7683 713.138 100.005C715.051 104.105 716.008 109.025 716.008 114.765V176.47C716.008 178.383 716.691 179.887 718.058 180.98C719.424 182.073 721.269 182.825 723.593 183.235C725.916 183.645 728.513 183.85 731.383 183.85H731.588V190H699.403ZM813.515 97.545L784.2 190H771.9L744.02 97.34C743.474 95.29 742.585 93.7867 741.355 92.83C740.125 91.7367 738.759 90.985 737.255 90.575C735.889 90.165 734.454 89.96 732.95 89.96H732.745V83.81H777.435V89.96H777.025C774.839 89.96 772.447 90.0283 769.85 90.165C767.254 90.3017 764.999 90.5067 763.085 90.78C761.309 91.0533 760.42 91.4633 760.42 92.01L785.225 178.93H781.33L811.465 83.81H822.33L852.875 178.725H848.98L872.555 94.265C872.555 93.3083 871.667 92.5567 869.89 92.01C868.114 91.3267 865.995 90.8483 863.535 90.575C861.075 90.165 858.752 89.96 856.565 89.96H856.155V83.81H889.365V89.96H889.16C887.52 89.96 885.949 90.3017 884.445 90.985C882.942 91.5317 881.575 92.5567 880.345 94.06C879.252 95.4267 878.364 97.2717 877.68 99.595L852.055 190H839.755L809.825 97.545H813.515ZM901.143 90.37V84.425H901.758C906.132 84.425 909.753 83.9467 912.623 82.99C915.63 81.8967 917.953 80.2567 919.593 78.07C921.233 75.7467 922.19 72.6717 922.463 68.845L929.228 83.81H963.668V90.37H901.143ZM935.788 161.095C935.788 166.972 936.472 171.687 937.838 175.24C939.342 178.657 941.392 181.117 943.988 182.62C946.585 184.123 949.523 184.875 952.803 184.875C956.357 184.875 959.363 184.397 961.823 183.44C964.42 182.483 966.06 181.937 966.743 181.8V188.565C965.513 189.248 963.942 189.863 962.028 190.41C960.252 190.957 958.338 191.367 956.288 191.64C954.238 191.913 952.052 192.05 949.728 192.05C943.715 192.05 938.248 191.025 933.328 188.975C928.408 186.925 924.513 183.645 921.643 179.135C918.91 174.488 917.543 168.407 917.543 160.89V82.99L921.233 82.375L923.488 57.365H935.788V161.095Z" fill="white"/>
</svg>
